<svg xmlns="http://www.w3.org/2000/svg" width="50" height="50" viewBox="0 0 50 50">
  <g id="Group_31205" data-name="Group 31205" transform="translate(-55 -314)">
    <circle id="Ellipse_125" data-name="Ellipse 125" cx="25" cy="25" r="25" transform="translate(55 314)" fill="#ff4f26"/>
    <g id="vuesax_outline_truck-fast" data-name="vuesax/outline/truck-fast" transform="translate(-680 139)">
      <g id="truck-fast" transform="translate(748 188)">
        <path id="Vector" d="M10.933,13.127H9.961a.729.729,0,1,1,0-1.459h.972a1.216,1.216,0,0,0,1.215-1.215V1.459H4.127A3.169,3.169,0,0,0,1.365,3.082a.729.729,0,1,1-1.274-.71A4.636,4.636,0,0,1,4.127,0h8.751a.735.735,0,0,1,.729.729v9.723A2.672,2.672,0,0,1,10.933,13.127Z" transform="translate(1.707 1.215)" fill="#fff"/>
        <path id="Vector-2" data-name="Vector" d="M17.259,16.044h-.972a.735.735,0,0,1-.729-.729,1.215,1.215,0,0,0-2.431,0,.735.735,0,0,1-.729.729H8.508a.735.735,0,0,1-.729-.729,1.215,1.215,0,1,0-2.431,0,.735.735,0,0,1-.729.729H3.646A3.648,3.648,0,0,1,0,12.4a.735.735,0,0,1,.729-.729.735.735,0,0,1,.729.729,2.191,2.191,0,0,0,2.188,2.188h.34a2.679,2.679,0,0,1,5.153,0h2.635a2.679,2.679,0,0,1,5.153,0h.331A2.191,2.191,0,0,0,19.447,12.4V10.21H17.259a1.71,1.71,0,0,1-1.7-1.7V5.591a1.7,1.7,0,0,1,1.7-1.7l-1.04-1.818a1.217,1.217,0,0,0-1.06-.613H14.1V7.536a2.672,2.672,0,0,1-2.674,2.674h-.972a.729.729,0,0,1,0-1.459h.972a1.216,1.216,0,0,0,1.215-1.215V.729A.735.735,0,0,1,13.37,0h1.789a2.672,2.672,0,0,1,2.324,1.352l1.663,2.907a.749.749,0,0,1,0,.729.723.723,0,0,1-.632.36H17.259a.241.241,0,0,0-.243.243V8.508a.241.241,0,0,0,.243.243h2.917a.735.735,0,0,1,.729.729V12.4A3.648,3.648,0,0,1,17.259,16.044Z" transform="translate(1.215 4.132)" fill="#fff"/>
        <path id="Vector-3" data-name="Vector" d="M2.674,5.348A2.674,2.674,0,1,1,5.348,2.674,2.672,2.672,0,0,1,2.674,5.348Zm0-3.889A1.215,1.215,0,1,0,3.889,2.674,1.216,1.216,0,0,0,2.674,1.459Z" transform="translate(5.105 16.773)" fill="#fff"/>
        <path id="Vector-4" data-name="Vector" d="M2.674,5.348A2.674,2.674,0,1,1,5.348,2.674,2.672,2.672,0,0,1,2.674,5.348Zm0-3.889A1.215,1.215,0,1,0,3.889,2.674,1.216,1.216,0,0,0,2.674,1.459Z" transform="translate(12.884 16.773)" fill="#fff"/>
        <path id="Vector-5" data-name="Vector" d="M4.619,6.32H1.7A1.71,1.71,0,0,1,0,4.619V1.7A1.71,1.71,0,0,1,1.7,0H2.956a.712.712,0,0,1,.632.369L5.251,3.287a.766.766,0,0,1,.1.36V5.591A.735.735,0,0,1,4.619,6.32ZM1.7,1.459a.241.241,0,0,0-.243.243V4.619a.241.241,0,0,0,.243.243H3.889V3.841L2.528,1.459Z" transform="translate(16.773 8.022)" fill="#fff"/>
        <path id="Vector-6" data-name="Vector" d="M6.563,1.459H.729A.735.735,0,0,1,0,.729.735.735,0,0,1,.729,0H6.563a.735.735,0,0,1,.729.729A.735.735,0,0,1,6.563,1.459Z" transform="translate(1.215 7.05)" fill="#fff"/>
        <path id="Vector-7" data-name="Vector" d="M4.619,1.459H.729A.735.735,0,0,1,0,.729.735.735,0,0,1,.729,0H4.619a.735.735,0,0,1,.729.729A.735.735,0,0,1,4.619,1.459Z" transform="translate(1.215 9.967)" fill="#fff"/>
        <path id="Vector-8" data-name="Vector" d="M2.674,1.459H.729A.735.735,0,0,1,0,.729.735.735,0,0,1,.729,0H2.674A.735.735,0,0,1,3.4.729.735.735,0,0,1,2.674,1.459Z" transform="translate(1.215 12.884)" fill="#fff"/>
        <path id="Vector-9" data-name="Vector" d="M0,0H23.336V23.336H0Z" fill="none" opacity="0"/>
      </g>
    </g>
  </g>
</svg>
