<svg xmlns="http://www.w3.org/2000/svg" width="50" height="50" viewBox="0 0 50 50">
  <g id="Group_31203" data-name="Group 31203" transform="translate(-55 -598)">
    <circle id="Ellipse_127" data-name="Ellipse 127" cx="25" cy="25" r="25" transform="translate(55 598)" fill="#9f88bc"/>
    <g id="reserve" transform="translate(-488 167)">
      <path id="Vector" d="M17.75,6.5h-14C0,6.5,0,4.42,0,2.75v-1A1.758,1.758,0,0,1,1.75,0h18A1.758,1.758,0,0,1,21.5,1.75v1C21.5,4.42,21.5,6.5,17.75,6.5Zm-16-5a.248.248,0,0,0-.25.25v1C1.5,4.39,1.5,5,3.75,5h14C20,5,20,4.39,20,2.75v-1a.248.248,0,0,0-.25-.25Z" transform="translate(557.22 460.25)" fill="#fff"/>
      <path id="Vector-2" data-name="Vector" d="M18.2,13.5H.75A.755.755,0,0,1,0,12.75v-4A8.783,8.783,0,0,1,6.91.2,8.574,8.574,0,0,1,8.75,0H10.2a8.6,8.6,0,0,1,1.85.2,8.79,8.79,0,0,1,6.9,8.55v4A.749.749,0,0,1,18.2,13.5ZM1.5,12H17.45V8.75a7.292,7.292,0,0,0-5.72-7.09A6.966,6.966,0,0,0,10.2,1.5H8.75a6.94,6.94,0,0,0-1.52.16A7.284,7.284,0,0,0,1.5,8.75Z" transform="translate(558.52 448.25)" fill="#fff"/>
      <path id="Vector-3" data-name="Vector" d="M.84,4.68a.747.747,0,0,1-.72-.55A3.254,3.254,0,0,1,3.25,0,3.254,3.254,0,0,1,6.38,4.13a.736.736,0,0,1-.88.53A6.966,6.966,0,0,0,3.97,4.5H2.52A6.94,6.94,0,0,0,1,4.66.777.777,0,0,1,.84,4.68ZM2.52,3H3.97a8.6,8.6,0,0,1,1.02.06,1.75,1.75,0,0,0-3.48,0A8.553,8.553,0,0,1,2.52,3Z" transform="translate(564.75 445.25)" fill="#fff"/>
      <path id="Vector-4" data-name="Vector" d="M6.75,1.5h-6A.755.755,0,0,1,0,.75.755.755,0,0,1,.75,0h6A.755.755,0,0,1,7.5.75.755.755,0,0,1,6.75,1.5Z" transform="translate(564.25 454.25)" fill="#fff"/>
      <path id="Vector-5" data-name="Vector" d="M0,0H24V24H0Z" transform="translate(556 444)" fill="none" opacity="0"/>
    </g>
  </g>
</svg>
