<svg xmlns="http://www.w3.org/2000/svg" width="50" height="50" viewBox="0 0 50 50">
  <g id="Group_31249" data-name="Group 31249" transform="translate(-46 -362)">
    <circle id="Ellipse_123" data-name="Ellipse 123" cx="25" cy="25" r="25" transform="translate(46 362)" fill="#00008c"/>
    <g id="vuesax_outline_briefcase" data-name="vuesax/outline/briefcase" transform="translate(-50 186)">
      <g id="briefcase" transform="translate(108 188)">
        <path id="Vector" d="M15.983,19.276H7.166c-5.092,0-6.04-2.37-6.282-4.673L.058,5.775a5.227,5.227,0,0,1,.992-4.144C2.041.529,3.683,0,6.064,0H17.085c2.392,0,4.034.54,5.015,1.631a5.242,5.242,0,0,1,.992,4.155l-.827,8.806C22.022,16.906,21.075,19.276,15.983,19.276ZM6.064,1.642c-1.863,0-3.141.364-3.791,1.091A3.566,3.566,0,0,0,1.7,5.61l.827,8.828c.187,1.741.661,3.185,4.64,3.185h8.817c3.968,0,4.453-1.444,4.64-3.2l.827-8.806a3.582,3.582,0,0,0-.573-2.888c-.65-.727-1.929-1.091-3.791-1.091Z" transform="translate(1.651 5.797)" fill="#fff"/>
        <path id="Vector-2" data-name="Vector" d="M9.643,6.062a.833.833,0,0,1-.827-.827V4.353c0-1.962,0-2.7-2.7-2.7H4.353c-2.7,0-2.7.738-2.7,2.7v.882a.833.833,0,0,1-.827.827A.833.833,0,0,1,0,5.235V4.353C0,2.414,0,0,4.353,0H6.117C10.47,0,10.47,2.414,10.47,4.353v.882A.833.833,0,0,1,9.643,6.062Z" transform="translate(7.99 1.378)" fill="#fff"/>
        <path id="Vector-3" data-name="Vector" d="M3.031,6.062C0,6.062,0,4.188,0,3.064V1.929C0,.375.375,0,1.929,0h2.2C5.687,0,6.062.375,6.062,1.929v1.1C6.062,4.177,6.062,6.062,3.031,6.062ZM1.653,1.653V3.064c0,1.135,0,1.345,1.378,1.345s1.378-.176,1.378-1.356v-1.4H1.653Z" transform="translate(10.194 12.399)" fill="#fff"/>
        <path id="Vector-4" data-name="Vector" d="M.822,4.988a.822.822,0,0,1-.816-.727.83.83,0,0,1,.716-.926A17.386,17.386,0,0,0,8.768.161.821.821,0,0,1,9.925.348a.831.831,0,0,1-.187,1.157A19.137,19.137,0,0,1,.921,4.988Z" transform="translate(14.608 11.29)" fill="#fff"/>
        <path id="Vector-5" data-name="Vector" d="M8.968,4.692h-.1A18.9,18.9,0,0,1,.361,1.507.825.825,0,0,1,1.287.14,17.361,17.361,0,0,0,9.045,3.05a.828.828,0,0,1,.727.915A.8.8,0,0,1,8.968,4.692Z" transform="translate(2.053 11.597)" fill="#fff"/>
        <path id="Vector-6" data-name="Vector" d="M0,0H26.451V26.451H0Z" fill="none" opacity="0"/>
      </g>
    </g>
  </g>
</svg>
