<svg xmlns="http://www.w3.org/2000/svg" xmlns:xlink="http://www.w3.org/1999/xlink" width="169.336" height="40.394" viewBox="0 0 169.336 40.394">
  <defs>
    <clipPath id="clip-path">
      <rect id="Rectangle_18137" data-name="Rectangle 18137" width="169.336" height="40.394" fill="none"/>
    </clipPath>
  </defs>
  <g id="Group_31191" data-name="Group 31191" transform="translate(0 0)">
    <rect id="Rectangle_18135" data-name="Rectangle 18135" width="0.48" height="40.394" transform="translate(92.897 0)" fill="#2a2d7c"/>
    <g id="Group_10159" data-name="Group 10159" transform="translate(0 0)">
      <g id="Group_10158" data-name="Group 10158" clip-path="url(#clip-path)">
        <path id="Path_95760" data-name="Path 95760" d="M105.151,58.164a3.829,3.829,0,0,1-.266,1.446,3.067,3.067,0,0,1-.782,1.129,3.741,3.741,0,0,1-1.26.742,4.949,4.949,0,0,1-1.7.27H98.913v4.191H97.471V54.576h3.688a4.887,4.887,0,0,1,1.692.271,3.762,3.762,0,0,1,1.252.742,3.077,3.077,0,0,1,.782,1.129,3.825,3.825,0,0,1,.266,1.446m-6.239-2.227V60.39h2.247a2.633,2.633,0,0,0,1.882-.619,2.115,2.115,0,0,0,.653-1.608,2.372,2.372,0,0,0-.159-.882,1.945,1.945,0,0,0-.478-.7,2.237,2.237,0,0,0-.789-.471,3.257,3.257,0,0,0-1.108-.17Z" transform="translate(-47.191 -26.423)" fill="#d82128"/>
        <path id="Path_95761" data-name="Path 95761" d="M123.292,57.916a3.171,3.171,0,0,1-.751,2.142,3.544,3.544,0,0,1-2.072,1.136l3.355,4.747h-1.73l-3.279-4.67h-1.776v4.67H115.6V54.576h3.962a4.627,4.627,0,0,1,1.525.24,3.454,3.454,0,0,1,1.177.672,3.036,3.036,0,0,1,.758,1.052,3.364,3.364,0,0,1,.273,1.376m-6.254-1.979v3.974h2.6a2.307,2.307,0,0,0,1.67-.588,1.959,1.959,0,0,0,.531-1.407,1.839,1.839,0,0,0-.592-1.461,2.582,2.582,0,0,0-1.746-.518Z" transform="translate(-55.966 -26.423)" fill="#d82128"/>
        <path id="Path_95762" data-name="Path 95762" d="M133.218,60.122a6,6,0,0,1,1.6-4.113,5.493,5.493,0,0,1,1.783-1.268,5.6,5.6,0,0,1,4.463,0,5.5,5.5,0,0,1,1.784,1.268,6.114,6.114,0,0,1,1.177,6.364,5.853,5.853,0,0,1-1.177,1.856,5.544,5.544,0,0,1-1.784,1.26,5.6,5.6,0,0,1-4.463,0,5.542,5.542,0,0,1-1.783-1.26,5.843,5.843,0,0,1-1.176-1.856,5.978,5.978,0,0,1-.425-2.25m1.472,0A4.574,4.574,0,0,0,135,61.8a4.52,4.52,0,0,0,.865,1.407,4.1,4.1,0,0,0,1.313.967,4.028,4.028,0,0,0,3.309,0,4.11,4.11,0,0,0,1.313-.967,4.52,4.52,0,0,0,.865-1.407,4.646,4.646,0,0,0-.865-4.771,4.155,4.155,0,0,0-1.313-.982,3.95,3.95,0,0,0-3.309,0,4.144,4.144,0,0,0-1.313.982A4.623,4.623,0,0,0,135,58.444a4.574,4.574,0,0,0-.311,1.678" transform="translate(-64.498 -26.278)" fill="#d82128"/>
        <path id="Path_95763" data-name="Path 95763" d="M0,54.576H9.214v2.536H5.935v8.83H3.263v-8.83H0Z" transform="translate(0 -26.423)" fill="#2a2d7c"/>
        <rect id="Rectangle_18136" data-name="Rectangle 18136" width="2.672" height="11.366" transform="translate(10.58 28.153)" fill="#2a2d7c"/>
        <path id="Path_95764" data-name="Path 95764" d="M42.208,65.942H39.537V59.85l-2.96,4.809H35.408l-2.975-4.825v6.108H29.761V54.577h2.216L35.985,61.1l4.007-6.526h2.216Z" transform="translate(-14.409 -26.424)" fill="#2a2d7c"/>
        <path id="Path_95765" data-name="Path 95765" d="M57.963,54.576h7.863v2.4H60.635v2.072h3.31v2.072h-3.31v2.428h5.4v2.4H57.963Z" transform="translate(-28.063 -26.423)" fill="#2a2d7c"/>
        <path id="Path_95766" data-name="Path 95766" d="M78.082,65.565a6.007,6.007,0,0,1-2-.948l.883-1.978a5.956,5.956,0,0,0,1.716.859,6.374,6.374,0,0,0,1.99.324,3.152,3.152,0,0,0,1.636-.332,1,1,0,0,0,.53-.884.849.849,0,0,0-.313-.672,2.351,2.351,0,0,0-.8-.43q-.49-.162-1.324-.357a17.928,17.928,0,0,1-2.1-.616,3.411,3.411,0,0,1-1.4-.988,2.685,2.685,0,0,1-.586-1.815,3.18,3.18,0,0,1,.53-1.792,3.567,3.567,0,0,1,1.6-1.272,6.453,6.453,0,0,1,2.608-.47,8.556,8.556,0,0,1,2.1.259,6.167,6.167,0,0,1,1.8.746l-.8,1.993a6.22,6.22,0,0,0-3.113-.891,2.891,2.891,0,0,0-1.612.357,1.09,1.09,0,0,0-.522.94.918.918,0,0,0,.6.867,9.356,9.356,0,0,0,1.837.559,18.277,18.277,0,0,1,2.1.616,3.485,3.485,0,0,1,1.4.972,2.626,2.626,0,0,1,.585,1.8,3.12,3.12,0,0,1-.538,1.775,3.618,3.618,0,0,1-1.612,1.272,6.512,6.512,0,0,1-2.615.47,9.108,9.108,0,0,1-2.575-.365" transform="translate(-36.837 -26.238)" fill="#2a2d7c"/>
        <path id="Path_95767" data-name="Path 95767" d="M54.432,1.362V5.046a1.911,1.911,0,0,0,1.893,1.928h6.819V22.889h6.145V1.362Z" transform="translate(-26.353 -0.66)" fill="#2a2d7c"/>
        <path id="Path_95768" data-name="Path 95768" d="M86.015,1.385V6.512c2.845,1.4,4.8-.988,7.5.586V1.971c-2.708-1.574-4.658.81-7.5-.586" transform="translate(-41.644 -0.671)" fill="#d82128"/>
        <path id="Path_95769" data-name="Path 95769" d="M206.388,1.228V36.342c23.84,9.562,40.184-6.767,62.871,4.013V5.241c-22.687-10.78-39.031,5.548-62.871-4.013" transform="translate(-99.923 -0.595)" fill="#d82128"/>
      </g>
    </g>
    <text id="CAREER" transform="translate(110.312 16.575)" fill="#fff" font-size="8" font-family="Montserrat-Bold, Montserrat" font-weight="700"><tspan x="0" y="0" letter-spacing="0.061em">C</tspan><tspan y="0" letter-spacing="0.075em">AREE</tspan><tspan y="0">R</tspan></text>
    <text id="CARNIVAL" transform="translate(110.312 27.69)" fill="#fff" font-size="8" font-family="Montserrat-Bold, Montserrat" font-weight="700"><tspan x="0" y="0" letter-spacing="0.061em">C</tspan><tspan y="0" letter-spacing="0.075em">AR</tspan><tspan y="0" letter-spacing="0.074em">N</tspan><tspan y="0" letter-spacing="0.071em">I</tspan><tspan y="0" letter-spacing="0.036em">V</tspan><tspan y="0" letter-spacing="0.075em">A</tspan><tspan y="0">L</tspan></text>
  </g>
</svg>
