<svg id="vuesax_outline_timer" data-name="vuesax/outline/timer" xmlns="http://www.w3.org/2000/svg" width="19.102" height="19.102" viewBox="0 0 19.102 19.102">
  <g id="timer">
    <path id="Vector" d="M7.561,15.122a7.561,7.561,0,1,1,7.561-7.561A7.568,7.568,0,0,1,7.561,15.122Zm0-13.928a6.367,6.367,0,1,0,6.367,6.367A6.376,6.376,0,0,0,7.561,1.194Z" transform="translate(1.99 2.985)" fill="#fff"/>
    <path id="Vector-2" data-name="Vector" d="M.6,5.173a.6.6,0,0,1-.6-.6V.6A.6.6,0,0,1,.6,0a.6.6,0,0,1,.6.6v3.98A.6.6,0,0,1,.6,5.173Z" transform="translate(8.954 5.77)" fill="#fff"/>
    <path id="Vector-3" data-name="Vector" d="M5.372,1.194H.6A.6.6,0,0,1,0,.6.6.6,0,0,1,.6,0H5.372a.6.6,0,0,1,.6.6A.6.6,0,0,1,5.372,1.194Z" transform="translate(6.566 0.995)" fill="#fff"/>
    <path id="Vector-4" data-name="Vector" d="M0,0H19.1V19.1H0Z" fill="none" opacity="0"/>
  </g>
</svg>
