<svg xmlns="http://www.w3.org/2000/svg" xmlns:xlink="http://www.w3.org/1999/xlink" width="90.877" height="43.5" viewBox="0 0 90.877 43.5">
  <defs>
    <clipPath id="clip-path">
      <rect id="Rectangle_3146" data-name="Rectangle 3146" width="90.877" height="43.5" fill="none"/>
    </clipPath>
  </defs>
  <g id="Group_9635" data-name="Group 9635" transform="translate(14 -2444)">
    <g id="Group_9634" data-name="Group 9634" transform="translate(-14 2444)">
      <g id="Group_9633" data-name="Group 9633" clip-path="url(#clip-path)">
        <path id="Path_94215" data-name="Path 94215" d="M961.052,514.349a4.2,4.2,0,0,1-.3,1.613,3.42,3.42,0,0,1-.888,1.259,4.253,4.253,0,0,1-1.432.828,5.725,5.725,0,0,1-1.932.3h-2.536v4.675h-1.639V510.346h4.192a5.659,5.659,0,0,1,1.923.3,4.287,4.287,0,0,1,1.424.828,3.425,3.425,0,0,1,.888,1.259,4.2,4.2,0,0,1,.3,1.613m-7.091-2.484v4.969h2.554a3.028,3.028,0,0,0,2.139-.69,2.339,2.339,0,0,0,.742-1.794,2.6,2.6,0,0,0-.181-.983,2.163,2.163,0,0,0-.544-.785,2.56,2.56,0,0,0-.9-.526,3.776,3.776,0,0,0-1.259-.19Z" transform="translate(-895.172 -479.719)" fill="#d92128"/>
        <path id="Path_94216" data-name="Path 94216" d="M1138.16,514.073a3.5,3.5,0,0,1-.854,2.39,4.051,4.051,0,0,1-2.355,1.268l3.813,5.3H1136.8l-3.726-5.21h-2.019v5.21h-1.639V510.346h4.5a5.358,5.358,0,0,1,1.734.267,3.937,3.937,0,0,1,1.337.75,3.387,3.387,0,0,1,.862,1.173,3.7,3.7,0,0,1,.311,1.535m-7.108-2.208V516.3H1134a2.652,2.652,0,0,0,1.9-.655,2.161,2.161,0,0,0,.6-1.57,2.033,2.033,0,0,0-.673-1.63,2.971,2.971,0,0,0-1.984-.578Z" transform="translate(-1061.635 -479.719)" fill="#d92128"/>
        <path id="Path_94217" data-name="Path 94217" d="M1301.579,513.993a6.631,6.631,0,0,1,1.82-4.589,6.325,6.325,0,0,1,9.127,0,6.719,6.719,0,0,1,1.337,7.1,6.522,6.522,0,0,1-1.337,2.07,6.309,6.309,0,0,1-2.027,1.406,6.474,6.474,0,0,1-5.072,0,6.3,6.3,0,0,1-2.027-1.406,6.589,6.589,0,0,1-1.82-4.581m1.673,0a5.069,5.069,0,0,0,1.337,3.442,4.654,4.654,0,0,0,1.492,1.079,4.655,4.655,0,0,0,3.761,0,4.662,4.662,0,0,0,1.492-1.079,5.108,5.108,0,0,0,.983-5.314,5.15,5.15,0,0,0-.983-1.579,4.716,4.716,0,0,0-1.492-1.1,4.564,4.564,0,0,0-3.761,0,4.708,4.708,0,0,0-1.492,1.1,5.126,5.126,0,0,0-.983,1.579,5.012,5.012,0,0,0-.354,1.872" transform="translate(-1223.469 -477.017)" fill="#d92128"/>
        <path id="Path_94218" data-name="Path 94218" d="M0,510.346H10.473v2.83H6.746v9.851H3.709v-9.851H0Z" transform="translate(0 -479.72)" fill="#00008c"/>
        <rect id="Rectangle_3145" data-name="Rectangle 3145" width="3.037" height="12.681" transform="translate(12.025 30.627)" fill="#00008c"/>
        <path id="Path_94219" data-name="Path 94219" d="M304.926,523.027h-3.037v-6.8l-3.364,5.366H297.2l-3.382-5.383v6.815h-3.037V510.346H293.3l4.555,7.281,4.555-7.281h2.519Z" transform="translate(-273.329 -479.72)" fill="#00008c"/>
        <path id="Path_94220" data-name="Path 94220" d="M566.317,510.346h8.937v2.674h-5.9v2.312h3.762v2.312h-3.762v2.709H575.5v2.674h-9.179Z" transform="translate(-532.332 -479.72)" fill="#00008c"/>
        <path id="Path_94221" data-name="Path 94221" d="M745.641,519.368a6.887,6.887,0,0,1-2.27-1.058l1-2.206a6.83,6.83,0,0,0,1.951.958,7.38,7.38,0,0,0,2.261.362,3.637,3.637,0,0,0,1.86-.371,1.118,1.118,0,0,0,.6-.986.939.939,0,0,0-.356-.75,2.7,2.7,0,0,0-.912-.479q-.557-.18-1.5-.4a20.806,20.806,0,0,1-2.389-.687,3.877,3.877,0,0,1-1.6-1.1,2.962,2.962,0,0,1-.666-2.025,3.5,3.5,0,0,1,.6-2,4.044,4.044,0,0,1,1.814-1.419,7.461,7.461,0,0,1,2.964-.525,9.91,9.91,0,0,1,2.389.289,7.1,7.1,0,0,1,2.042.832l-.912,2.224a7.165,7.165,0,0,0-3.538-.995,3.339,3.339,0,0,0-1.833.4,1.212,1.212,0,0,0-.593,1.049,1.025,1.025,0,0,0,.684.967,10.773,10.773,0,0,0,2.088.624,21,21,0,0,1,2.389.687,3.959,3.959,0,0,1,1.6,1.085,2.894,2.894,0,0,1,.666,2.007,3.436,3.436,0,0,1-.611,1.98,4.1,4.1,0,0,1-1.833,1.419,7.529,7.529,0,0,1-2.973.525,10.528,10.528,0,0,1-2.927-.407" transform="translate(-698.76 -476.275)" fill="#00008c"/>
        <path id="Path_94222" data-name="Path 94222" d="M531.814,0V4.11a2.151,2.151,0,0,0,2.151,2.151h7.751V24.018H548.7V0Z" transform="translate(-499.899)" fill="#00008c"/>
        <path id="Path_94223" data-name="Path 94223" d="M840.394.216v5.72c3.234,1.558,5.451-1.1,8.528.654V.87c-3.078-1.756-5.295.9-8.528-.654" transform="translate(-789.961 -0.203)" fill="#d92128"/>
      </g>
    </g>
  </g>
</svg>
